HIERARCHY
ROOT Hips
{
	OFFSET 0.000000 0.000000 0.000000
	CHANNELS 6 Xposition Yposition Zposition Zrotation Yrotation Xrotation 
	JOINT LeftUpLeg_virtual
	{
		OFFSET 0.000000 0.000000 0.000000
		CHANNELS 3 Zrotation Yrotation Xrotation
		JOINT LeftUpLeg
		{
			OFFSET 8.479694 -4.795517 -0.379053
			CHANNELS 3 Zrotation Yrotation Xrotation
			JOINT LeftLeg
			{
				OFFSET 0.485052 -32.551468 0.112863
				CHANNELS 3 Zrotation Yrotation Xrotation
				JOINT LeftFoot
				{
					OFFSET 0.438033 -32.635670 -3.012641
					CHANNELS 3 Zrotation Yrotation Xrotation
					JOINT LeftToeBase
					{
						OFFSET 0.970169 -13.225353 11.864223
						CHANNELS 3 Zrotation Yrotation Xrotation
						End Site
						{
							OFFSET 0.000000 0.000000 0.000000
						}
					}
				}
			}
		}
	}
	JOINT RightUpLeg_virtual
	{
		OFFSET 0.000000 0.000000 0.000000
		CHANNELS 3 Zrotation Yrotation Xrotation
		JOINT RightUpLeg
		{
			OFFSET -8.479694 -4.795517 -0.379053
			CHANNELS 3 Zrotation Yrotation Xrotation
			JOINT RightLeg
			{
				OFFSET -0.484100 -32.551483 0.112903
				CHANNELS 3 Zrotation Yrotation Xrotation
				JOINT RightFoot
				{
					OFFSET -0.438985 -32.635651 -3.012681
					CHANNELS 3 Zrotation Yrotation Xrotation
					JOINT RightToeBase
					{
						OFFSET -0.970169 -13.225354 11.864223
						CHANNELS 3 Zrotation Yrotation Xrotation
						End Site
						{
							OFFSET 0.000000 0.000000 0.000000
						}
					}
				}
			}
		}
	}
	JOINT Spine_virtual
	{
		OFFSET 0.000000 0.000000 0.000000
		CHANNELS 3 Zrotation Yrotation Xrotation
		JOINT Spine
		{
			OFFSET 0.000000 7.722015 1.166203
			CHANNELS 3 Zrotation Yrotation Xrotation
			JOINT Spine1
			{
				OFFSET 0.000000 12.024086 0.248766
				CHANNELS 3 Zrotation Yrotation Xrotation
				JOINT Spine2
				{
					OFFSET -0.000000 11.503036 -0.491240
					CHANNELS 3 Zrotation Yrotation Xrotation
					JOINT Neck_virtual
					{
						OFFSET 0.000000 0.000000 0.000000
						CHANNELS 3 Zrotation Yrotation Xrotation
						JOINT Neck
						{
							OFFSET 0.000000 18.430687 -3.123054
							CHANNELS 3 Zrotation Yrotation Xrotation
							JOINT Head
							{
								OFFSET -0.000000 9.051071 1.034021
								CHANNELS 3 Zrotation Yrotation Xrotation
								End Site
								{
									OFFSET 0.000000 0.000000 0.000000
								}
							}
						}
					}
					JOINT LeftShoulder_virtual
					{
						OFFSET 0.000000 0.000000 0.000000
						CHANNELS 3 Zrotation Yrotation Xrotation
						JOINT LeftShoulder
						{
							OFFSET 6.197824 13.665230 -4.064723
							CHANNELS 3 Zrotation Yrotation Xrotation
							JOINT LeftArm
							{
								OFFSET 7.778132 -0.187073 -1.709282
								CHANNELS 3 Zrotation Yrotation Xrotation
								JOINT LeftForeArm
								{
									OFFSET 21.954697 0.000000 -2.041093
									CHANNELS 3 Zrotation Yrotation Xrotation
									JOINT LeftHand
									{
										OFFSET 22.992908 0.000000 -0.870901
										CHANNELS 3 Zrotation Yrotation Xrotation
										End Site
										{
											OFFSET 0.000000 0.000000 0.000000
										}
									}
								}
							}
						}
					}
					JOINT RightShoulder_virtual
					{
						OFFSET 0.000000 0.000000 0.000000
						CHANNELS 3 Zrotation Yrotation Xrotation
						JOINT RightShoulder
						{
							OFFSET -6.197824 13.665230 -4.064723
							CHANNELS 3 Zrotation Yrotation Xrotation
							JOINT RightArm
							{
								OFFSET -7.778132 -0.187073 -1.709282
								CHANNELS 3 Zrotation Yrotation Xrotation
								JOINT RightForeArm
								{
									OFFSET -21.954697 0.000000 -2.041093
									CHANNELS 3 Zrotation Yrotation Xrotation
									JOINT RightHand
									{
										OFFSET -22.992908 0.000000 -0.870901
										CHANNELS 3 Zrotation Yrotation Xrotation
										End Site
										{
											OFFSET 0.000000 0.000000 0.000000
										}
									}
								}
							}
						}
					}
				}
			}
		}
	}
}
MOTION
Frames: 8
Frame Time: 0.033333
17.044300 81.482689 -2.806125 179.830343 2.289364 -179.572708 -3.602885 -1.779516 10.671296 2.327946 -2.907222 -21.824193 7.302417 1.159228 29.688151 -3.615241 -8.872632 -9.326253 0.000000 0.000000 0.000000 -0.092666 -1.793572 9.509254 -4.122883 0.802215 -21.185869 -1.544815 3.909763 30.873268 8.816596 6.264244 -12.028915 0.000000 0.000000 0.000000 2.216005 1.226291 -3.474326 -7.220359 2.026115 -1.236775 -1.009550 -2.712155 4.484509 0.041484 0.019605 0.070036 -1.517301 -1.520391 5.774495 -0.170742 -1.284184 -9.447892 0.000000 0.000000 0.000000 -0.101668 -0.722450 3.009600 15.165380 8.153111 -3.738014 -0.775480 -2.219528 -49.506024 -2.387825 -39.282231 -8.514935 0.000000 0.000000 0.000000 -3.768996 0.436373 2.600846 5.487589 -16.549653 -6.322265 6.906130 -4.530679 -43.226966 -0.712427 34.280357 -2.590614 0.000000 0.000000 0.000000 
17.037340 81.489784 -2.796639 179.698316 2.339862 -179.333433 -3.485786 -1.713343 10.915663 2.332551 -3.061754 -21.536917 7.248654 0.307131 29.867847 -4.259808 -9.562989 -8.967052 0.000000 0.000000 0.000000 -0.144201 -1.684672 9.312744 -4.085970 0.527076 -21.329084 -1.692903 3.655471 31.194041 8.594162 5.984942 -12.153105 0.000000 0.000000 0.000000 2.149185 1.459602 -3.616402 -7.271902 1.971563 -1.278150 -1.068562 -2.696658 4.471764 0.001648 0.048775 0.113056 -1.511788 -1.493461 5.836292 -0.169235 -1.309017 -9.364910 0.000000 0.000000 0.000000 -0.078625 -0.709539 2.983125 15.185956 8.050638 -3.681977 -0.745178 -2.378591 -49.553869 -2.380751 -39.248757 -8.587079 0.000000 0.000000 0.000000 -3.744658 0.406491 2.628475 5.459190 -16.599800 -6.398957 6.868077 -4.586611 -43.150212 -0.481379 34.299598 -2.322442 0.000000 0.000000 0.000000 
17.011997 81.488739 -2.776589 179.694750 2.200153 -179.325442 -3.452627 -1.704209 10.892331 2.267595 -3.024052 -21.556195 7.267349 0.293249 29.875418 -4.319739 -9.603047 -8.912599 0.000000 0.000000 0.000000 -0.191846 -1.793703 9.278644 -3.998580 0.405212 -21.311898 -1.756725 3.681323 31.166020 8.686203 6.016817 -12.113777 0.000000 0.000000 0.000000 2.178719 1.149648 -3.579265 -7.268020 1.953951 -1.267717 -1.064529 -2.666238 4.424110 0.012915 0.050841 0.126365 -1.497786 -1.458229 5.748376 -0.133244 -1.298925 -9.457369 0.000000 0.000000 0.000000 -0.058833 -0.637432 2.959104 15.187672 8.026097 -3.668326 -0.801404 -2.421306 -49.319840 -2.378072 -39.079033 -8.462789 0.000000 0.000000 0.000000 -3.674761 0.423731 2.684976 5.402784 -16.490063 -6.483815 6.909794 -4.609069 -43.303054 -0.614676 34.410015 -2.526863 0.000000 0.000000 0.000000 
16.956295 81.493942 -2.751015 179.708219 2.378636 -179.305498 -3.427096 -1.695594 10.903568 2.174072 -2.923831 -21.613066 7.281821 0.337090 29.908111 -4.336111 -9.598993 -8.883174 0.000000 0.000000 0.000000 -0.169114 -1.687077 9.249892 -4.106813 0.509589 -21.334210 -1.668821 3.792486 31.172232 8.637401 5.865928 -12.137551 0.000000 0.000000 0.000000 2.204600 1.208881 -3.559915 -7.257547 2.072724 -1.238887 -1.030508 -2.623605 4.431811 0.047745 0.092416 0.125600 -1.535927 -1.565742 5.817702 -0.031314 -1.331115 -9.391523 0.000000 0.000000 0.000000 -0.069581 -0.790580 2.942260 15.235386 7.837693 -3.717547 -0.857147 -2.318242 -49.131835 -2.238864 -38.853627 -8.357308 0.000000 0.000000 0.000000 -3.762953 0.411932 2.589299 5.501724 -16.431022 -6.305794 6.776520 -4.781324 -43.261790 -0.611345 34.536121 -2.549867 0.000000 0.000000 0.000000 
16.876114 81.501938 -2.711938 179.705528 2.341699 -179.292957 -3.384666 -1.703189 10.936525 2.025695 -2.802404 -21.719329 7.372522 0.319007 29.935421 -4.424552 -9.681187 -8.818744 0.000000 0.000000 0.000000 -0.202604 -1.830788 9.281668 -4.046665 0.538118 -21.380203 -1.683934 3.858614 31.069875 8.688352 5.784270 -12.029328 0.000000 0.000000 0.000000 2.236897 1.072824 -3.519633 -7.239907 2.043749 -1.187511 -1.035854 -2.651548 4.394708 0.010190 0.065816 0.136700 -1.443835 -1.459406 5.677463 0.084565 -1.383908 -9.389670 0.000000 0.000000 0.000000 -0.011771 -0.708638 2.922012 15.224101 7.731173 -3.738052 -0.951577 -2.309649 -49.084895 -2.167298 -38.503101 -8.132197 0.000000 0.000000 0.000000 -3.706698 0.479790 2.554271 5.565641 -16.232803 -6.112464 6.737517 -4.942650 -43.317855 -0.498986 34.340395 -2.498668 0.000000 0.000000 0.000000 
16.765043 81.517761 -2.645762 179.624304 2.643534 -179.310812 -3.422151 -1.689465 11.000083 1.848196 -2.677487 -21.834236 7.431303 0.461877 29.978643 -4.419779 -9.698425 -8.752802 0.000000 0.000000 0.000000 -0.220338 -1.802483 9.318779 -4.217607 0.600771 -21.510699 -1.755243 3.999833 31.043681 8.843809 5.791920 -11.887289 0.000000 0.000000 0.000000 2.171973 1.283548 -3.378578 -7.246762 2.211399 -1.110168 -1.014833 -2.645408 4.380804 0.013580 0.053479 0.109556 -1.400103 -1.366142 5.590053 0.183636 -1.366752 -9.308610 0.000000 0.000000 0.000000 0.028930 -0.703904 2.919894 15.163729 7.554736 -3.812040 -1.200184 -2.278401 -48.896805 -1.907207 -38.410016 -8.020378 0.000000 0.000000 0.000000 -3.652175 0.423066 2.530783 5.558972 -16.158083 -5.926356 6.785151 -5.147800 -43.318282 -0.439630 34.135807 -2.520158 0.000000 0.000000 0.000000 
16.616125 81.543633 -2.545342 179.628361 2.777563 -179.316057 -3.391067 -1.665430 11.031468 1.651424 -2.519284 -21.981494 7.566881 0.500184 30.012527 -4.418108 -9.780524 -8.674409 0.000000 0.000000 0.000000 -0.167854 -1.821076 9.381972 -4.390938 0.669756 -21.678899 -1.741363 4.074122 30.959639 8.959854 5.721027 -11.689002 0.000000 0.000000 0.000000 2.165885 1.154070 -3.244027 -7.176782 2.214175 -1.044042 -1.028712 -2.614959 4.314411 0.099425 0.052738 0.117771 -1.386345 -1.288386 5.506356 0.394280 -1.761173 -9.200134 0.000000 0.000000 0.000000 -0.019284 -0.623783 2.820232 15.016559 7.368090 -3.679580 -1.395342 -2.054939 -48.651898 -1.455798 -38.254520 -7.997297 0.000000 0.000000 0.000000 -3.696287 0.438378 2.468811 5.582869 -15.913815 -6.050211 6.862052 -5.340475 -43.422415 -0.341699 33.978279 -2.504943 0.000000 0.000000 0.000000 
16.412683 81.575317 -2.407252 179.645218 3.156553 -179.325319 -3.358200 -1.604747 11.055804 1.404440 -2.299982 -22.136676 7.717046 0.652452 30.066663 -4.343345 -9.864372 -8.607458 0.000000 0.000000 0.000000 -0.040458 -1.713985 9.424272 -4.707902 0.802527 -21.907900 -1.691701 4.133465 30.914806 9.137372 5.707760 -11.451480 0.000000 0.000000 0.000000 2.138839 1.154570 -3.056242 -7.061235 2.271942 -0.962432 -0.983798 -2.569737 4.275082 -0.022717 0.086563 0.093344 -1.284191 -1.291914 5.425460 0.482293 -1.713613 -9.021947 0.000000 0.000000 0.000000 0.097664 -0.655203 2.739681 15.032597 7.202259 -3.805973 -1.900956 -1.808124 -48.164302 -1.005798 -38.167322 -7.859208 0.000000 0.000000 0.000000 -3.579415 0.557772 2.297720 5.534095 -15.723486 -5.793430 7.130369 -5.663256 -43.608053 -0.264750 34.049176 -2.517149 0.000000 0.000000 0.000000 
